<?xml version="1.0" standalone="no"?>
<!DOCTYPE svg PUBLIC "-//W3C//DTD SVG 20010904//EN"
 "http://www.w3.org/TR/2001/REC-SVG-20010904/DTD/svg10.dtd">
<svg version="1.0" xmlns="http://www.w3.org/2000/svg"
 width="225.000000pt" height="225.000000pt" viewBox="0 0 225.000000 225.000000"
 preserveAspectRatio="xMidYMid meet">
<metadata>
Created by potrace 1.16, written by Peter Selinger 2001-2019
</metadata>
<g transform="translate(0.000000,225.000000) scale(0.100000,-0.100000)"
fill="#000000" stroke="none">
<path d="M965 1994 c-133 -32 -282 -131 -367 -244 -87 -117 -131 -249 -131
-400 0 -225 108 -423 304 -558 60 -41 79 -86 79 -192 0 -67 -3 -81 -19 -89
-28 -16 -44 -64 -37 -118 7 -57 7 -53 0 -124 -5 -49 -3 -59 19 -85 22 -25 32
-29 96 -32 l71 -4 0 -50 c0 -39 5 -54 25 -73 22 -23 32 -25 120 -25 88 0 98 2
120 25 20 19 25 34 25 73 l0 50 71 4 c64 3 74 7 96 32 22 26 24 36 19 85 -7
71 -7 67 0 124 7 54 -9 102 -37 118 -16 8 -19 22 -19 91 0 108 21 151 98 206
140 99 240 247 272 405 14 69 8 90 -22 85 -19 -2 -26 -15 -40 -73 -40 -155
-119 -271 -253 -369 -96 -72 -115 -111 -115 -241 l0 -95 -215 0 -215 0 0 98
c0 121 -20 169 -96 222 -195 139 -293 325 -282 540 15 290 209 504 511 565 32
7 44 29 27 50 -15 18 -27 18 -105 -1z m428 -1555 c5 -9 7 -28 3 -42 l-6 -27
-264 0 c-282 0 -276 -1 -276 49 0 39 15 41 279 39 220 -3 255 -5 264 -19z m0
-150 c5 -9 7 -28 3 -42 l-6 -27 -264 0 c-282 0 -276 -1 -276 49 0 39 15 41
279 39 220 -3 255 -5 264 -19z"/>
<path d="M1182 1998 c-15 -15 -16 -35 -1 -43 6 -4 39 -13 74 -20 129 -27 264
-113 341 -217 58 -78 82 -130 109 -233 19 -73 23 -80 45 -80 24 0 25 3 23 51
-2 61 -38 163 -84 241 -43 73 -149 178 -221 221 -102 60 -261 105 -286 80z"/>
<path d="M1036 1814 c-11 -10 -16 -34 -16 -73 0 -53 -2 -59 -27 -70 -24 -11
-29 -9 -67 28 -58 57 -80 54 -145 -13 -28 -30 -51 -62 -51 -71 0 -8 18 -35 41
-60 36 -39 40 -47 32 -72 -9 -26 -14 -28 -79 -33 l-69 -5 0 -95 0 -95 69 -5
c65 -5 70 -7 79 -33 8 -25 4 -33 -32 -72 -23 -25 -41 -52 -41 -60 0 -9 23 -41
51 -71 65 -67 87 -70 145 -13 38 37 43 39 67 28 25 -11 27 -17 27 -70 0 -79
12 -89 105 -89 93 0 105 10 105 89 0 53 2 59 27 70 24 11 29 9 67 -28 58 -57
80 -54 145 13 28 30 51 62 51 71 0 8 -18 35 -41 60 -36 39 -40 47 -32 72 9 26
14 28 79 33 l69 5 0 95 0 95 -69 5 c-65 5 -70 7 -79 33 -8 25 -4 33 32 72 23
25 41 52 41 60 0 9 -23 41 -51 71 -65 67 -87 70 -145 13 -38 -37 -43 -39 -67
-28 -25 11 -27 17 -27 70 0 79 -12 89 -105 89 -54 0 -78 -4 -89 -16z m132
-112 l3 -63 56 -24 c30 -14 60 -25 66 -25 6 0 30 19 54 42 l43 42 25 -24 c14
-13 25 -28 25 -34 0 -6 -18 -29 -41 -52 l-41 -41 22 -49 c35 -81 32 -79 99
-82 l61 -3 0 -39 0 -39 -61 -3 c-67 -3 -64 -1 -99 -82 l-22 -49 41 -41 c23
-23 41 -46 41 -52 0 -6 -11 -21 -25 -34 l-25 -24 -43 42 c-24 23 -48 42 -54
42 -6 0 -36 -11 -66 -25 l-56 -24 -3 -63 -3 -63 -40 0 -40 0 -3 63 -3 63 -56
24 c-30 14 -60 25 -66 25 -6 0 -30 -19 -54 -42 l-43 -42 -25 24 c-14 13 -25
28 -25 34 0 6 18 29 41 52 l41 41 -22 49 c-35 81 -32 79 -99 82 l-61 3 0 39 0
39 61 3 c67 3 64 1 99 82 l22 49 -41 41 c-23 23 -41 46 -41 52 0 6 11 21 25
34 l25 24 43 -42 c24 -23 48 -42 54 -42 6 0 36 11 67 25 l56 25 0 58 c0 32 3
62 7 66 4 4 23 6 43 4 l35 -3 3 -63z"/>
<path d="M1086 1518 c-78 -17 -136 -88 -136 -168 0 -19 9 -53 19 -76 58 -128
254 -128 312 0 24 52 24 100 0 152 -32 71 -114 109 -195 92z m100 -77 c42 -26
60 -78 44 -127 -32 -96 -178 -96 -210 0 -23 72 30 146 105 146 17 0 44 -9 61
-19z"/>
</g>
</svg>
